<?xml version="1.0" encoding="UTF-8"?>
<svg xmlns="http://www.w3.org/2000/svg" version="1.1" viewBox="0 0 1202 328">
  <defs>
    <style>
      .cls-1 {
        fill: #f6f6f6;
      }
    </style>
  </defs>
  <!-- Generator: Adobe Illustrator 28.7.1, SVG Export Plug-In . SVG Version: 1.2.0 Build 142)  -->
  <g>
    <g id="Logotype">
      <g id="Mark">
        <polygon id="block-center" class="cls-1" points="124.2 196.3 124.2 132.3 120.2 128.3 56.2 128.3 52.2 132.3 52.2 196.3 56.2 200.3 120.2 200.3 124.2 196.3"/>
        <polygon id="block-small-bottom" class="cls-1" points="4.2 216.3 .2 220.3 .2 258.3 4.2 262.3 42.2 262.3 46.2 258.3 46.2 220.3 42.2 216.3 4.2 216.3"/>
        <polygon id="block-small-top" class="cls-1" points="4.2 66.3 .2 70.3 .2 108.3 4.2 112.3 42.2 112.3 46.2 108.3 46.2 70.3 42.2 66.3 4.2 66.3"/>
        <path id="chevron" class="cls-1" d="M280.2,118.3h-72l-4-4v-62l-4-4h-64l-4-4V6.3l-4-4h-44l-4,4v46l4,4h48l4,4v62l4,4h68l4,4v68l-4,4h-68l-4,4v62l-4,4h-48l-4,4v46l4,4h44l4-4v-38l4-4h64l4-4v-62l4-4h72l4-4v-84l-4-4Z"/>
      </g>
      <g id="Wordmark">
        <rect id="letter-i" class="cls-1" x="657.2" y="136.3" width="50" height="144"/>
        <path id="letter-d" class="cls-1" d="M390.2,48.3v232h169.5l60-60v-112l-60-60h-169.5ZM564.2,202.3l-26,26h-98V100.3h98l26,26v76Z"/>
        <path id="letter-o" class="cls-1" d="M1168.7,94.3h-120l-33,33v120l33,33h120l33-33v-120l-33-33ZM1156.7,228.6l-6.6,6.6h-82.7l-6.6-6.6v-82.7l6.6-6.6h82.7l6.6,6.6v82.7Z"/>
        <polygon id="letter-t-2" class="cls-1" points="934.2 48.3 884.2 48.3 884.2 238.3 930.2 238.3 934.2 242.3 934.2 280.3 990.2 280.3 990.2 224.3 938.2 224.3 934.2 220.3 934.2 140.3 990.2 140.3 990.2 94.3 934.2 94.3 934.2 48.3"/>
        <polygon id="letter-t-1" class="cls-1" points="798.2 48.3 748.2 48.3 748.2 238.3 794.2 238.3 798.2 242.3 798.2 280.3 854.2 280.3 854.2 224.3 802.2 224.3 798.2 220.3 798.2 140.3 854.2 140.3 854.2 94.3 798.2 94.3 798.2 48.3"/>
        <rect id="letter-i-dot" class="cls-1" x="657.2" y="48.3" width="50" height="50"/>
      </g>
    </g>
  </g>
</svg>