<svg width="280" height="280" viewBox="0 0 280 280" fill="none" xmlns="http://www.w3.org/2000/svg">
<rect width="280" height="280" rx="48" fill="black"/>
<path fill-rule="evenodd" clip-rule="evenodd" d="M206.577 125.857C250.391 132.865 280.106 146.21 280 161.316C279.845 183.221 217.04 200.535 139.72 199.987C62.4004 199.44 -0.154278 181.238 0.000285812 159.333C0.108033 144.063 30.6612 131.024 75.3532 124.711C77.8622 100.05 106.479 80.756 141.268 81.0023C176.158 81.2494 204.563 101.061 206.577 125.857ZM87.6603 133.982C100.679 142.189 119.646 147.43 140.796 147.58C161.948 147.729 180.989 142.756 194.123 134.733C194.655 132.771 194.925 130.798 194.939 128.839C194.998 120.478 190.385 111.804 180.731 104.732C171.094 97.6739 157.154 92.8864 141.185 92.7734C125.215 92.6603 111.209 97.2499 101.474 104.171C91.7209 111.105 86.9854 119.713 86.9264 128.074C86.9126 130.034 87.1556 132.012 87.6603 133.982Z" fill="white"/>
</svg>
