<svg width="476" height="460" viewBox="0 0 476 460" fill="none" xmlns="http://www.w3.org/2000/svg">
<path fill-rule="evenodd" clip-rule="evenodd" d="M289 134.231C338.182 130.809 386.011 122.474 432 109.715V241.273C427.829 238.404 423.243 236.017 418.344 234.187C407.197 230.024 394.932 228.935 383.1 231.057C371.267 233.179 360.398 238.418 351.867 246.109C343.336 253.801 337.526 263.601 335.172 274.27C332.818 284.939 334.026 295.998 338.643 306.048C343.26 316.098 351.079 324.688 361.11 330.731C371.142 336.775 382.935 340 395 340C396.857 340 397.786 340 398.571 339.985C440.971 339.141 475.141 304.971 475.984 262.571C476 261.786 476 260.857 476 259V245L476 95.9719L476 58.0003L476 0.675781C402.501 30.4201 322.163 46.799 238 46.799C189.896 46.799 143.042 41.4484 98 31.3099L98 66.0003V242.273C93.8289 239.404 89.2427 237.017 84.3437 235.187C73.1974 231.024 60.9324 229.935 49.0995 232.057C37.2667 234.179 26.3975 239.417 17.8665 247.109C9.33551 254.801 3.52582 264.601 1.17213 275.27C-1.18157 285.939 0.0264305 296.998 4.64338 307.048C9.26032 317.098 17.0788 325.688 27.1102 331.731C37.1416 337.775 48.9354 341 61 341C62.857 341 63.7855 341 64.5707 340.985C106.971 340.141 141.141 305.971 141.984 263.571C141.993 263.136 141.997 262.657 141.999 262H142V260.655L142 260V246L142 129.691C173.409 133.852 205.454 136 238 136C240.336 136 242.669 135.989 245 135.967V361.273C240.829 358.404 236.243 356.017 231.344 354.187C220.197 350.024 207.932 348.935 196.1 351.057C184.267 353.179 173.398 358.417 164.867 366.109C156.336 373.801 150.526 383.601 148.172 394.27C145.818 404.939 147.026 415.998 151.643 426.048C156.26 436.098 164.079 444.688 174.11 450.731C184.142 456.775 195.935 460 208 460C209.857 460 210.786 460 211.571 459.985C253.971 459.141 288.141 424.971 288.984 382.571C289 381.786 289 380.857 289 379V365L289 134.231Z" fill="#146AFF"/>
</svg>
